HIERARCHY
ROOT Hips
{
  OFFSET 0 0 0
  CHANNELS 6 Xposition Yposition Zposition Zrotation Xrotation Yrotation
  JOINT Spine
  {
    OFFSET 0 8.14573 0
    CHANNELS 3 Zrotation Xrotation Yrotation
    JOINT Spine1
    {
      OFFSET 0 24.111 0
      CHANNELS 3 Zrotation Xrotation Yrotation
      JOINT Neck
      {
        OFFSET 0 24.012 2.18291
        CHANNELS 3 Zrotation Xrotation Yrotation
        JOINT Head
        {
          OFFSET 0 13.9074 -1.98676
          CHANNELS 3 Zrotation Xrotation Yrotation
          End Site
          {
            OFFSET 0 19.8676 0
          }
        }
      }
      JOINT LeftShoulder
      {
        OFFSET 3.98182 23.2766 -0.033966
        CHANNELS 3 Zrotation Xrotation Yrotation
        JOINT LeftArm
        {
          OFFSET 8.45088 0 0
          CHANNELS 3 Zrotation Xrotation Yrotation
          JOINT LeftForeArm
          {
            OFFSET 36.5975 0 0
            CHANNELS 3 Zrotation Xrotation Yrotation
            JOINT LeftHand
            {
              OFFSET 28.1209 0 0
              CHANNELS 3 Zrotation Xrotation Yrotation
              End Site
              {
                OFFSET 14.9007 0 0
              }
            }
          }
        }
      }
      JOINT RightShoulder
      {
        OFFSET -3.9644 23.2766 -0.033966
        CHANNELS 3 Zrotation Xrotation Yrotation
        JOINT RightArm
        {
          OFFSET -8.45088 0 0
          CHANNELS 3 Zrotation Xrotation Yrotation
          JOINT RightForeArm
          {
            OFFSET -36.5975 0 0
            CHANNELS 3 Zrotation Xrotation Yrotation
            JOINT RightHand
            {
              OFFSET -28.1209 0 0
              CHANNELS 3 Zrotation Xrotation Yrotation
              End Site
              {
                OFFSET -14.9007 0 0
              }
            }
          }
        }
      }
    }
  }
  JOINT LeftUpLeg
  {
    OFFSET 9.93382 0 0
    CHANNELS 3 Zrotation Xrotation Yrotation
    JOINT LeftLeg
    {
      OFFSET 0 -42.7024 0
      CHANNELS 3 Zrotation Xrotation Yrotation
      JOINT LeftFoot
      {
        OFFSET 0 -37.602 0
        CHANNELS 3 Zrotation Xrotation Yrotation
        JOINT LeftToeBase
        {
          OFFSET 0 -6.45698 14.9007
          CHANNELS 3 Zrotation Xrotation Yrotation
          End Site
          {
            OFFSET 0 0 3.97353
          }
        }
      }
    }
  }
  JOINT RightUpLeg
  {
    OFFSET -9.93382 0 0
    CHANNELS 3 Zrotation Xrotation Yrotation
    JOINT RightLeg
    {
      OFFSET 0 -42.7024 0
      CHANNELS 3 Zrotation Xrotation Yrotation
      JOINT RightFoot
      {
        OFFSET 0 -37.602 0
        CHANNELS 3 Zrotation Xrotation Yrotation
        JOINT RightToeBase
        {
          OFFSET 0 -6.45698 14.9007
          CHANNELS 3 Zrotation Xrotation Yrotation
          End Site
          {
            OFFSET 0 0 3.97353
          }
        }
      }
    }
  }
}
MOTION
Frames:	13
Frame Time:	0.0166667
33.5662 95.8953 -287.322 1.78499 1.73609 3.79417 -0.474642 -0.463356 0.325438 0.241343 -1.67278 0.112941 1.83737 13.8253 0.08887 1.70225 12.8971 0.101746 13.6359 0.21364 -2.11759 -18.9482 -1.07019 -0.529222 -0.306185 -1.48085 0.453983 4.39721 -1.55443 -1.94811 -10.1246 1.4083 -0.272171 21.7289 0.219359 -8.06647 1.16751 -0.75134 -2.52726 -4.58386 -0.81772 2.30219 2.50833 5.40514 0.765548 -3.75743 -2.19174 0.710316 0.471224 -4.79269 12.4406 -1.02498e-016 1.49089e-016 -0 -6.87606 3.29372 -0.585746 4.26605 3.25119 -2.07353 2.60341 -7.46233 -15.0921 1.98785e-016 -9.93923e-017 3.18055e-015 
33.5766 95.8887 -287.305 1.79225 1.74816 3.87065 -0.474795 -0.476963 0.297748 0.250322 -1.67312 0.103413 1.82954 13.8597 0.063913 1.73006 12.8681 0.080876 13.6295 0.198677 -2.14012 -18.9097 -0.975002 -0.534584 -0.292065 -1.54075 0.453996 4.42197 -1.61502 -1.9536 -10.1662 1.37357 -0.145997 21.7486 0.179395 -8.24419 1.15938 -0.752308 -2.54769 -4.61071 -0.819788 2.31557 2.50374 5.38511 0.746198 -3.75936 -2.16838 0.666981 0.472112 -4.82693 12.421 3.63403e-016 -6.21202e-017 -0 -6.86839 3.31617 -0.611543 4.23443 3.2188 -2.43406 2.69366 -7.46137 -14.8185 7.45443e-017 -1.98785e-016 -0 
33.5979 95.8815 -287.277 1.80094 1.7596 3.89442 -0.474536 -0.510909 0.307057 0.234521 -1.65755 0.106834 1.79281 13.8734 0.074335 1.8174 12.8708 0.094607 13.6174 0.217356 -2.13928 -18.8628 -0.937379 -0.567554 -0.270922 -1.58566 0.457372 4.73244 -1.65976 -1.81903 -10.1778 1.35882 -0.139798 21.732 0.14479 -8.28948 1.15835 -0.734484 -2.55319 -4.58466 -0.80128 2.31438 2.48459 5.38587 0.770957 -3.76226 -2.15613 0.593541 0.504724 -4.85229 12.4514 -1.2424e-017 3.10601e-017 -0 -6.82449 3.27818 -0.65988 4.09814 3.32217 -2.52798 2.76173 -7.52531 -14.7192 2.48481e-017 9.93923e-017 1.59028e-015 
33.6148 95.8808 -287.255 1.80813 1.78192 3.91343 -0.474098 -0.548918 0.33149 0.263068 -1.59022 0.114954 1.72886 13.7439 0.056436 1.89148 12.9612 0.073269 13.5844 0.124789 -2.06315 -18.8373 -0.843784 -0.628635 -0.230227 -1.52714 0.443149 4.57363 -1.59995 -1.84657 -10.2351 1.29532 -0.24011 21.749 0.159758 -8.27592 1.13609 -0.66743 -2.54609 -4.36385 -0.732109 2.35981 2.47044 5.37409 0.752653 -3.76697 -2.14996 0.591377 0.522072 -4.85924 12.446 -3.23025e-016 1.2424e-017 -3.18055e-015 -6.90614 3.37215 -0.418848 4.24034 3.14789 -2.23178 2.67637 -7.54712 -15.2151 4.96962e-017 9.93923e-017 1.59028e-015 
33.6305 95.8802 -287.235 1.8234 1.80483 3.90824 -0.473799 -0.568562 0.350185 0.246701 -1.59698 0.121 1.73109 13.7201 0.061844 1.90811 13.003 0.08181 13.6031 0.115395 -2.03165 -18.8313 -0.854248 -0.652565 -0.196851 -1.47877 0.429293 4.63411 -1.55355 -1.86743 -10.1335 1.39291 -0.239031 21.6283 0.08613 -8.26638 1.162 -0.715715 -2.529 -4.36963 -0.780895 2.37812 2.45887 5.37811 0.697377 -3.79252 -2.17001 0.631732 0.541791 -4.86096 12.4515 7.45443e-017 -1.2424e-017 -0 -6.84885 3.30023 -0.482644 4.06017 3.2576 -2.54732 2.81549 -7.57749 -14.8622 1.2424e-016 1.98785e-016 4.77083e-015 
33.6452 95.8798 -287.217 1.82678 1.82007 3.89907 -0.466448 -0.572188 0.35945 0.244744 -1.61212 0.124279 1.70455 13.7062 0.069003 1.92834 13.0221 0.086431 13.6263 0.288777 -1.9373 -18.8479 -1.03007 -0.791673 -0.194342 -1.52538 0.435771 4.69918 -1.60203 -1.88627 -10.1677 1.38575 -0.25303 21.6537 0.079205 -8.24817 1.16721 -0.7238 -2.52937 -4.38992 -0.788659 2.36166 2.44069 5.37646 0.674663 -3.78344 -2.17538 0.716456 0.531779 -4.85299 12.4143 8.69683e-017 -1.2424e-017 -6.36111e-015 -6.86812 3.3093 -0.425124 4.07093 3.23536 -2.48986 2.784 -7.56224 -14.9513 -1.2424e-016 0 -0 
33.653 95.8794 -287.199 1.82223 1.83536 3.87125 -0.467678 -0.57675 0.374333 0.271519 -1.62669 0.129283 1.66576 13.7024 0.080451 1.92646 13.0171 0.099479 13.5883 0.307685 -1.91606 -18.8146 -1.04731 -0.782146 -0.191254 -1.54867 0.44312 4.68129 -1.62422 -1.86681 -10.1749 1.39285 -0.25589 21.6367 0.039251 -8.21702 1.18571 -0.70129 -2.53196 -4.41017 -0.766362 2.36799 2.44352 5.37338 0.687669 -3.79001 -2.16621 0.656611 0.591556 -4.84285 12.4708 1.42876e-016 0 -0 -6.9159 3.3604 -0.315913 4.17845 3.12688 -2.219 2.69446 -7.53941 -15.2779 9.93923e-017 1.98785e-016 -0 
33.6633 95.8792 -287.183 1.81667 1.858 3.83844 -0.595552 -0.564249 0.518317 0.447079 -1.66711 0.180294 1.82112 13.6514 -0.02491 1.75454 13.0566 -0.020789 13.6444 0.303421 -2.08495 -18.937 -1.16707 -0.76723 -0.185018 -1.49607 0.469693 4.72078 -1.57195 -1.85964 -10.1803 1.43705 -0.349008 21.6042 0.064184 -8.29987 1.1763 -0.72506 -2.47549 -4.35576 -0.789749 2.36413 2.42814 5.36892 0.70172 -3.78027 -2.17119 0.704532 0.556097 -4.86659 12.457 -5.03174e-016 -9.93923e-017 -3.18055e-015 -6.91536 3.34827 -0.363591 4.16138 3.10145 -2.3214 2.72761 -7.4948 -15.1241 9.93923e-017 1.98785e-016 -1.59028e-015 
33.6617 95.8789 -287.179 1.8179 1.86077 3.75538 -0.491311 -0.550977 0.432002 0.31886 -1.66916 0.149458 1.6831 13.6596 0.109455 1.80388 13.0324 0.126369 13.5759 0.31122 -1.90441 -18.8116 -1.11522 -0.695667 -0.209619 -1.49891 0.450135 4.67558 -1.57327 -1.84124 -10.1179 1.43845 -0.365977 21.5803 0.035687 -8.00794 1.1636 -0.727646 -2.51716 -4.34101 -0.791482 2.36036 2.42084 5.38337 0.77998 -3.77242 -2.17274 0.717379 0.560045 -4.86826 12.4511 -2.98177e-016 -4.96962e-017 -0 -6.90726 3.29145 -0.305663 4.14573 3.17874 -2.25602 2.74372 -7.52983 -15.1733 -1.98785e-016 0 1.59028e-015 
33.6788 95.8788 -287.149 1.81426 1.87961 3.77021 -0.479845 -0.596567 0.398174 0.325562 -1.62869 0.138443 1.62838 13.6443 0.116327 1.81444 13.0206 0.134043 13.5544 0.307125 -1.84151 -18.8149 -1.1023 -0.697323 -0.211866 -1.51562 0.434839 4.66444 -1.58987 -1.84263 -10.1328 1.45562 -0.358257 21.603 0.050038 -7.97252 1.15121 -0.776502 -2.48254 -4.33952 -0.841286 2.36742 2.4023 5.3892 0.75061 -3.75539 -2.19593 0.768873 0.523996 -4.86239 12.4146 1.86361e-017 -9.93923e-017 -6.36111e-015 -6.92016 3.29832 -0.368359 4.15124 3.18565 -2.13272 2.70577 -7.53772 -15.2556 -2.48481e-017 -9.93923e-017 -1.59028e-015 
33.6736 95.8786 -287.143 1.80617 1.88557 3.69778 -0.50345 -0.566669 0.44682 0.358329 -1.66257 0.154866 1.65391 13.6146 0.116743 1.76647 13.054 0.131854 13.5413 0.292367 -1.82533 -18.8183 -1.10182 -0.683699 -0.209876 -1.53461 0.446424 4.72823 -1.6101 -1.84747 -10.1065 1.53027 -0.376976 21.6127 0.052448 -7.90816 1.13981 -0.832116 -2.45811 -4.34907 -0.896737 2.34589 2.40537 5.40165 0.803831 -3.74975 -2.19812 0.776734 0.528545 -4.87888 12.4278 -1.05604e-016 -4.96962e-017 3.18055e-015 -6.88866 3.2406 -0.399403 4.0974 3.27232 -2.01952 2.73152 -7.57076 -15.274 1.2424e-016 9.93923e-017 -0 
33.6755 95.8785 -287.129 1.8067 1.89679 3.67871 -0.519319 -0.563877 0.460572 0.372906 -1.67426 0.159924 1.67223 13.5818 0.124345 1.74193 13.0882 0.138051 13.5385 0.33221 -1.87832 -18.8336 -1.09764 -0.619803 -0.18848 -1.51371 0.404765 4.66164 -1.58698 -1.81714 -10.111 1.44984 -0.201773 21.6511 0.106916 -8.13159 1.16227 -0.946251 -2.38068 -4.59564 -1.01522 2.32115 2.40033 5.39567 0.86218 -3.75112 -2.17762 0.695715 0.535742 -4.88944 12.4801 -1.18028e-016 1.2424e-016 6.36111e-015 -6.88927 3.23142 -0.380383 4.09499 3.28868 -1.87717 2.74217 -7.61349 -15.4169 -1.98785e-016 -9.93923e-017 -0 
33.6789 95.8783 -287.112 1.80792 1.91805 3.6721 -0.505231 -0.585281 0.453552 0.353543 -1.66391 0.161399 1.64476 13.5443 0.160639 1.78865 13.1096 0.176171 13.5219 0.351663 -1.84821 -18.8187 -1.08942 -0.631209 -0.213108 -1.5833 0.408768 4.69457 -1.65719 -1.82131 -10.0904 1.44373 -0.338171 21.7517 0.340702 -7.92004 1.02098 -1.04715 -2.48237 -4.46995 -1.11694 2.35376 2.39722 5.37317 0.948313 -3.74419 -2.14612 0.642441 0.563228 -4.9158 12.4526 4.34841e-017 1.49089e-016 3.18055e-015 -6.8778 3.21408 -0.430542 4.07858 3.28875 -2.04544 2.77178 -7.59694 -15.2232 7.45443e-017 9.93923e-017 1.59028e-015 
